<svg width="148" height="42" viewBox="0 0 148 42" fill="none" xmlns="http://www.w3.org/2000/svg">
<path d="M13.9945 28.0289H7.44154L6.46969 31H0L7.19163 11.341H14.3L21.4638 31H14.9664L13.9945 28.0289ZM12.4951 23.3919L10.718 17.9218L8.94095 23.3919H12.4951ZM25.9742 14.0899C24.9006 14.0899 24.0398 13.803 23.3919 13.2292C22.744 12.6553 22.4201 11.9334 22.4201 11.0633C22.4201 10.1748 22.744 9.44361 23.3919 8.86976C24.0398 8.2774 24.9006 7.98122 25.9742 7.98122C27.0294 7.98122 27.8809 8.2774 28.5288 8.86976C29.1767 9.44361 29.5006 10.1748 29.5006 11.0633C29.5006 11.9334 29.1767 12.6553 28.5288 13.2292C27.8809 13.803 27.0294 14.0899 25.9742 14.0899ZM29.0286 15.3395V31H22.8643V15.3395H29.0286ZM37.9769 18.2272C38.6063 17.3202 39.3745 16.5982 40.2816 16.0614C41.1886 15.5061 42.1327 15.2284 43.1138 15.2284V21.8091H41.3645C40.1983 21.8091 39.3375 22.0128 38.7822 22.42C38.2453 22.8273 37.9769 23.5492 37.9769 24.5858V31H31.8127V15.3395H37.9769V18.2272ZM68.4038 11.341V31H62.2673V21.1983L59.2407 31H53.965L50.9384 21.1983V31H44.7742V11.341H52.3268L56.6584 23.142L60.879 11.341H68.4038ZM87.7621 15.3395V31H81.5979V28.612C81.1166 29.3525 80.4687 29.9541 79.6542 30.4169C78.8582 30.8797 77.9049 31.1111 76.7942 31.1111C74.9986 31.1111 73.5918 30.5095 72.5736 29.3062C71.574 28.103 71.0742 26.474 71.0742 24.4192V15.3395H77.2107V23.6418C77.2107 24.3822 77.4051 24.9746 77.7938 25.4188C78.2011 25.8446 78.7379 26.0575 79.4043 26.0575C80.0892 26.0575 80.626 25.8446 81.0148 25.4188C81.4035 24.9746 81.5979 24.3822 81.5979 23.6418V15.3395H87.7621ZM100.292 25.7521V31H97.96C93.6654 31 91.5181 28.8619 91.5181 24.5858V20.4763H89.5744V15.3395H91.5181V11.5632H97.6823V15.3395H100.237V20.4763H97.6823V24.6969C97.6823 25.0671 97.7656 25.3355 97.9322 25.5021C98.1173 25.6687 98.4135 25.7521 98.8208 25.7521H100.292Z" fill="#EDEDED"/>
<path d="M130.358 31.1944C128.877 31.1944 127.563 30.9537 126.415 30.4724C125.286 29.9911 124.388 29.3247 123.722 28.4732C123.055 27.6217 122.676 26.6591 122.583 25.5854H128.497C128.572 26.0482 128.766 26.3907 129.081 26.6128C129.414 26.835 129.83 26.946 130.33 26.946C130.645 26.946 130.895 26.8812 131.08 26.7517C131.265 26.6036 131.357 26.4277 131.357 26.2241C131.357 25.8724 131.163 25.6225 130.774 25.4744C130.386 25.3263 129.728 25.1597 128.803 24.9746C127.674 24.7524 126.739 24.5118 125.998 24.2526C125.276 23.9935 124.638 23.5492 124.083 22.9198C123.546 22.2904 123.277 21.4204 123.277 20.3097C123.277 19.3471 123.527 18.4771 124.027 17.6996C124.545 16.9037 125.304 16.2835 126.304 15.8393C127.303 15.3765 128.516 15.1451 129.941 15.1451C132.052 15.1451 133.699 15.6634 134.884 16.7C136.087 17.7367 136.809 19.088 137.05 20.754H131.58C131.487 20.3282 131.293 20.0043 130.996 19.7822C130.7 19.5415 130.302 19.4212 129.803 19.4212C129.488 19.4212 129.247 19.486 129.081 19.6156C128.914 19.7266 128.831 19.9025 128.831 20.1431C128.831 20.4578 129.025 20.6985 129.414 20.8651C129.803 21.0132 130.423 21.1705 131.274 21.3371C132.403 21.5592 133.357 21.8091 134.134 22.0868C134.912 22.3645 135.587 22.8458 136.161 23.5307C136.735 24.1971 137.022 25.1227 137.022 26.3074C137.022 27.233 136.753 28.066 136.217 28.8064C135.68 29.5469 134.902 30.13 133.884 30.5557C132.885 30.9815 131.709 31.1944 130.358 31.1944ZM142.578 14.0899C141.504 14.0899 140.644 13.803 139.996 13.2292C139.348 12.6553 139.024 11.9334 139.024 11.0633C139.024 10.1748 139.348 9.44361 139.996 8.86976C140.644 8.2774 141.504 7.98122 142.578 7.98122C143.633 7.98122 144.485 8.2774 145.133 8.86976C145.781 9.44361 146.105 10.1748 146.105 11.0633C146.105 11.9334 145.781 12.6553 145.133 13.2292C144.485 13.803 143.633 14.0899 142.578 14.0899ZM145.632 15.3395V31H139.468V15.3395H145.632Z" fill="#EDEDED"/>
<path d="M112.362 27.228L98.2455 36.3354L112.362 7.19171L112.362 27.228Z" fill="white" stroke="#0D0D0D" stroke-width="0.2"/>
<path d="M112.562 27.228L126.678 36.3354L112.562 7.19171L112.562 27.228Z" fill="#0D0D0D" stroke="#0D0D0D" stroke-width="0.2"/>
</svg>
